# xmcd CD database file
#
# Track frame offsets:
#	150
#	39395
#	72527
#	108272
#	133072
#	155865
#	187810
#	218457
#	242490
#	269215
#	285407
#
# Disc length: 4178 seconds
#
# Revision: 0
# Processed by: cddbd v1.5.2PL0 Copyright (c) Steve Scherf et al.
# Submitted via: CDex 1.70beta1
#
DISCID=a110500b
DTITLE=Gambit Jazzmen With Tim Laughlin - King Of The Mardi Gras
DYEAR=1900
DGENRE=Jazz
TTITLE0=Dreaming The Hours Away
TTITLE1=Bedelia
TTITLE2=Glory Of Love
TTITLE3=King Of The Mardi Gras
TTITLE4=Just A Closer Walk With thee
TTITLE5=Smiles
TTITLE6=Sweet Subtitute
TTITLE7=Dippermouth Blues
TTITLE8=Shim-me-sha-wabble
TTITLE9=Si Tu Vois Ma Mere
TTITLE10=Original Dixieland One Step
EXTD=
EXTT0=
EXTT1=
EXTT2=
EXTT3=
EXTT4=
EXTT5=
EXTT6=
EXTT7=
EXTT8=
EXTT9=
EXTT10=
PLAYORDER=
